<?xml version="1.0" encoding="UTF-8"?>
<svg id="_图层_1" xmlns="http://www.w3.org/2000/svg" version="1.1" viewBox="0 0 100 80">
  <!-- Generator: Adobe Illustrator 29.1.0, SVG Export Plug-In . SVG Version: 2.1.0 Build 142)  -->
  <defs>
    <style>
      .st0 {
        fill: blue;
      }
    </style>
  </defs>
  <path class="st0" d="M99.8,45.2c0-1.6-.3-3.1-.9-4.6-.9-2.2-2.1-3-4.4-3.1-7.5,0-15.1-.1-22.6-.1-.8,0-1.2-.2-1.3-1.1,0-1.3-.8-2-2.1-2.2-.6-.1-1.3-.1-2-.2-1.4,0-1.4,0-1.4-1.4,0-8.9.1-17.9.2-26.8,0-2.9-1-4.3-3.8-4.8C55.9-.2,50.2,0,44.5.1c-2,0-4,.1-6,.6-3,.7-4,2-4,5,0,8.7,0,17.5-.1,26.2,0,1.8.2,1.8-1.7,1.8-.4,0-.7,0-1.1,0-1.6.1-2.3.6-2.5,2.2-.2,1-.6,1.2-1.5,1.2-7.5,0-14.9-.1-22.4-.2-2.1,0-3.2.8-4,2.7-.5,1.4-.7,2.9-.8,4.3C0,49.3,0,54.5,0,59.7c0,3,.2,6,1.2,8.8.8,2.2,1.9,3,4.3,3,7.1,0,14.1,0,21.2.1,1.4,0,2.2.7,2.2,2.2,0,3.1,1.2,4.3,4.3,4.3,5.6,0,11.1,0,16.7.1h.7c5.4,0,10.8,0,16.3,0,2.5,0,3.7-1.2,3.8-3.6,0-.7,0-1.3,0-2,0-.6.1-.8.8-.8,7.5,0,14.9,0,22.4,0,2.2,0,3.7-1,4.5-3,.9-2.1,1.2-4.2,1.4-6.4.5-5.8.4-11.7.1-17.5h0ZM49.9,71.5c-8.3,0-15.1-6.9-15-15.2,0-8.3,6.9-15.1,15.2-15s15.1,6.9,15,15.2c0,8.3-6.9,15.1-15.2,15Z"/>
</svg>