<?xml version="1.0" encoding="UTF-8"?>
<svg id="_图层_1" xmlns="http://www.w3.org/2000/svg" version="1.1" viewBox="0 0 80 80">
  <!-- Generator: Adobe Illustrator 29.1.0, SVG Export Plug-In . SVG Version: 2.1.0 Build 142)  -->
  <defs>
    <style>
      .st0 {
        fill: blue;
      }
    </style>
  </defs>
  <path class="st0" d="M0,75.7c0,2.6,1.3,3.9,3.9,3.9,7.6,0,15.2,0,22.8,0,4.6,0,9.3,0,13.9,0,2.6,0,3.9-1.2,4-3.9,0-.8,0-1.5,0-2.4h1.2c9.1,0,18.2,0,27.3,0,2.2,0,3.8-1,4.8-3,1-2,1.4-4.1,1.7-6.3.6-4.3.7-8.6.5-13-.1-2.7-.5-5.5-1.1-8.2-.7-3.2-2.9-4.7-6.2-4.7-9.1,0-18.2,0-27.3,0h-.8c-.2-1.8-1-3-2.8-3.3-.7-.1-1.4-.1-2.1-.1-.5,0-1,0-1.6,0v-1.1c0-9,0-17.9,0-26.9,0-2.2-.9-3.6-2.7-4.7-1.9-1.1-4.1-1.6-6.2-1.7C26.4.1,23.4,0,20.5,0c-3.1,0-6.2.3-9.2,1.6-2.6,1.1-3.9,2.9-3.9,5.9,0,8.7,0,17.4,0,26.2v1.1h-3.2C1.5,34.8,0,36.2,0,39c0,12.2,0,24.4,0,36.6h0ZM8,55.1c0-8.5,6.8-15.3,15.3-15.4,8.5,0,15.3,6.8,15.4,15.3,0,8.5-6.8,15.3-15.3,15.4s-15.3-6.8-15.4-15.3Z"/>
</svg>