<?xml version="1.0" encoding="UTF-8"?>
<svg id="_图层_1" data-name="图层 1" xmlns="http://www.w3.org/2000/svg" viewBox="0 0 100 100">
  <defs>
    <style>
      .cls-1 {
        fill: blue;
      }
    </style>
  </defs>
  <path class="cls-1" d="M29.85,81.65c.85,.76,1.77,1.48,2.84,1.95,1.58,.69,2.65,.51,3.86-.69,3.92-3.86,7.84-7.73,11.74-11.61,.44-.44,.74-.54,1.25-.08,.69,.63,1.49,.63,2.24,.08,.39-.28,.74-.61,1.09-.94,.75-.71,.74-.72,1.46,0,4.59,4.65,9.18,9.3,13.78,13.95,1.47,1.49,2.71,1.7,4.43,.52,3.47-2.37,6.37-5.4,9.24-8.43,1-1.06,2.01-2.13,2.79-3.38,1.19-1.89,1.07-3.1-.5-4.69-4.49-4.54-8.99-9.08-13.49-13.62-.91-.92-1.04-.87-.03-1.84,.19-.18,.33-.41,.51-.61,.77-.88,.86-1.48,.18-2.45-.41-.59-.29-.92,.18-1.39,3.9-3.81,7.78-7.65,11.65-11.49,1.09-1.08,1.26-2.08,.62-3.46-.46-.99-1.13-1.84-1.83-2.66-2.48-2.91-5.22-5.58-7.96-8.24-1.56-1.51-3.17-3.01-5.19-3.94-1.59-.73-2.54-.58-3.78,.64-3.68,3.63-7.36,7.26-11.03,10.89q-1.13,1.12-2.26,0c-1.62-1.6-2.86-1.61-4.46-.03-2.89,2.85-5.78,5.71-8.67,8.56h0c-.12,.12-.24,.23-.36,.35-2.82,2.79-5.64,5.57-8.46,8.36-1.28,1.27-1.31,2.52-.1,3.86,.32,.36,.66,.7,1.01,1.03,.31,.29,.33,.48,0,.81-3.88,3.83-7.73,7.7-11.6,11.53-1.15,1.14-1.37,2.41-.78,3.88,.61,1.52,1.58,2.81,2.62,4.02,2.78,3.25,5.82,6.26,9,9.11Zm12.23-39.37c4.34-4.29,11.34-4.25,15.63,.1,4.29,4.34,4.25,11.34-.1,15.63-4.34,4.29-11.34,4.25-15.63-.1s-4.25-11.34,.1-15.63Z"/>
  <path class="cls-1" d="M27.68,78.94c1.22,1.04,2.51,2.01,4.02,2.62,1.48,.59,2.74,.37,3.88-.78,3.84-3.88,7.7-7.73,11.53-11.6,.33-.33,.52-.31,.81,0,.33,.35,.67,.69,1.03,1.01,1.34,1.22,2.59,1.19,3.86-.1,2.79-2.82,5.58-5.64,8.36-8.46,.12-.12,.24-.24,.35-.36h0c2.85-2.89,5.71-5.78,8.56-8.67,1.58-1.6,1.57-2.85-.03-4.46q-1.12-1.13,0-2.26c3.63-3.68,7.26-7.35,10.89-11.03,1.22-1.24,1.37-2.19,.64-3.78-.93-2.03-2.43-3.63-3.94-5.19-2.66-2.74-5.33-5.47-8.24-7.96-.82-.7-1.67-1.37-2.66-1.83-1.39-.65-2.38-.47-3.46,.62-3.84,3.88-7.68,7.75-11.49,11.65-.47,.48-.8,.59-1.39,.18-.97-.68-1.57-.59-2.45,.18-.2,.17-.43,.32-.61,.51-.97,1.01-.92,.88-1.84-.03-4.54-4.5-9.08-9-13.62-13.49-1.58-1.57-2.79-1.69-4.69-.5-1.25,.78-2.32,1.79-3.38,2.79-3.04,2.87-6.06,5.76-8.43,9.24-1.17,1.72-.97,2.96,.52,4.43,4.65,4.6,9.3,9.19,13.95,13.78,.73,.72,.72,.71,0,1.46-.33,.35-.66,.7-.94,1.09-.54,.76-.55,1.55,.08,2.24,.46,.51,.36,.81-.08,1.25-3.88,3.9-7.74,7.82-11.61,11.74-1.2,1.22-1.39,2.28-.69,3.86,.47,1.07,1.19,1.99,1.95,2.84,2.85,3.19,5.86,6.22,9.11,9Zm14.62-21.13c-4.34-4.29-4.39-11.29-.1-15.63,4.29-4.34,11.29-4.39,15.63-.1,4.34,4.29,4.39,11.29,.1,15.63-4.29,4.34-11.29,4.39-15.63,.1Z"/>
</svg>